<mxfile host="65bd71144e" pages="2">
    <diagram name="STM32WLE5 Architektur (LoRa integriert)" id="fHOgZfthsOh97Plm2dpq">
        <mxGraphModel dx="791" dy="538" grid="1" gridSize="10" guides="1" tooltips="1" connect="1" arrows="1" fold="1" page="1" pageScale="1" pageWidth="827" pageHeight="1169" math="0" shadow="0">
            <root>
                <mxCell id="0"/>
                <mxCell id="1" parent="0"/>
                <mxCell id="mcu_stm" value="Board: Lora E5 mini" style="swimlane;rounded=1;whiteSpace=wrap;html=1;fillColor=#dae8fc;strokeColor=#6c8ebf;fontSize=14;fontStyle=1;startSize=40;" parent="1" vertex="1">
                    <mxGeometry x="270" y="140" width="280" height="190" as="geometry"/>
                </mxCell>
                <mxCell id="-FlrmNBtS9VMSazVJfEe-1" value="" style="rounded=1;whiteSpace=wrap;html=1;fillColor=light-dark(#1BA1E2,#092F44);strokeColor=#006EAF;fontSize=12;fontColor=#ffffff;" parent="mcu_stm" vertex="1">
                    <mxGeometry x="20" y="60" width="240" height="110" as="geometry"/>
                </mxCell>
                <mxCell id="2" value="&lt;span style=&quot;color: rgb(0, 0, 0); font-family: Helvetica; font-size: 12px; font-style: normal; font-variant-ligatures: normal; font-variant-caps: normal; font-weight: 400; letter-spacing: normal; orphans: 2; text-indent: 0px; text-transform: none; widows: 2; word-spacing: 0px; -webkit-text-stroke-width: 0px; white-space: normal; text-decoration-thickness: initial; text-decoration-style: initial; text-decoration-color: initial; float: none; display: inline !important;&quot;&gt;STM32WLE5&lt;/span&gt;" style="text;whiteSpace=wrap;html=1;align=center;" vertex="1" parent="mcu_stm">
                    <mxGeometry x="90" y="75" width="100" height="40" as="geometry"/>
                </mxCell>
                <mxCell id="lora_integ" value="LoRa-Transceiver (integriert)" style="rounded=1;whiteSpace=wrap;html=1;fillColor=#d5e8d4;strokeColor=#82b366;fontSize=12" parent="mcu_stm" vertex="1">
                    <mxGeometry x="84" y="110" width="120" height="50" as="geometry"/>
                </mxCell>
                <mxCell id="gnss_stm" value="GNSS-Modul (UART)" style="rounded=1;whiteSpace=wrap;html=1;fillColor=#fff2cc;strokeColor=#d6b656;fontSize=12" parent="1" vertex="1">
                    <mxGeometry x="30" y="140" width="200" height="50" as="geometry"/>
                </mxCell>
                <mxCell id="sd_stm" value="SD-Karte (SPI)" style="rounded=1;whiteSpace=wrap;html=1;fillColor=#f8cecc;strokeColor=#b85450;fontSize=12" parent="1" vertex="1">
                    <mxGeometry x="30" y="280" width="200" height="50" as="geometry"/>
                </mxCell>
                <mxCell id="power_stm" value="Stromversorgung (Batterie)" style="rounded=1;whiteSpace=wrap;html=1;fillColor=#f5f5f5;strokeColor=#666666;fontSize=12" parent="1" vertex="1">
                    <mxGeometry x="310" y="380" width="200" height="50" as="geometry"/>
                </mxCell>
                <mxCell id="sensors_stm" value="Externe Sensoren (I²C / OneWire / GPIO)" style="rounded=1;whiteSpace=wrap;html=1;fillColor=#ffffff;strokeColor=#000000;fontSize=12" parent="1" vertex="1">
                    <mxGeometry x="580" y="210" width="200" height="50" as="geometry"/>
                </mxCell>
                <mxCell id="e1" style="exitX=1;exitY=0.5;exitDx=0;exitDy=0;entryX=0;entryY=0.5;entryDx=0;entryDy=0;" parent="1" source="gnss_stm" target="mcu_stm" edge="1">
                    <mxGeometry relative="1" as="geometry">
                        <mxPoint x="270" y="213" as="targetPoint"/>
                    </mxGeometry>
                </mxCell>
                <mxCell id="e2" style="entryX=0;entryY=0.5;entryDx=0;entryDy=0;exitX=1;exitY=0.5;exitDx=0;exitDy=0;" parent="1" source="sd_stm" target="mcu_stm" edge="1">
                    <mxGeometry relative="1" as="geometry"/>
                </mxCell>
                <mxCell id="e4" parent="1" source="power_stm" target="mcu_stm" edge="1">
                    <mxGeometry relative="1" as="geometry"/>
                </mxCell>
                <mxCell id="e5" style="entryX=1;entryY=0.5;entryDx=0;entryDy=0;exitX=0;exitY=0.5;exitDx=0;exitDy=0;" parent="1" source="sensors_stm" target="mcu_stm" edge="1">
                    <mxGeometry relative="1" as="geometry"/>
                </mxCell>
            </root>
        </mxGraphModel>
    </diagram>
    <diagram name="ESP32 Architektur (externes LoRa-Modul)" id="HTQjn1QvVeaVLX3pRl1t">
        <mxGraphModel dx="1290" dy="783" grid="1" gridSize="10" guides="1" tooltips="1" connect="1" arrows="1" fold="1" page="1" pageScale="1" pageWidth="827" pageHeight="1169" math="0" shadow="0">
            <root>
                <mxCell id="0"/>
                <mxCell id="1" parent="0"/>
                <mxCell id="mcu_esp" value="MCU: ESP32" style="swimlane;rounded=1;whiteSpace=wrap;html=1;fillColor=#dae8fc;strokeColor=#6c8ebf;fontSize=14;fontStyle=1" parent="1" vertex="1">
                    <mxGeometry x="270" y="140" width="280" height="120" as="geometry"/>
                </mxCell>
                <mxCell id="XX7xPQDDiVwZJhdfDnZB-1" value="&lt;font style=&quot;color: light-dark(rgb(0, 0, 0), rgb(255, 255, 255));&quot;&gt;ESP32&lt;/font&gt;" style="rounded=1;whiteSpace=wrap;html=1;fillColor=light-dark(#1BA1E2,#092F44);strokeColor=#006EAF;fontSize=12;fontColor=#ffffff;" vertex="1" parent="mcu_esp">
                    <mxGeometry x="20" y="50" width="240" height="50" as="geometry"/>
                </mxCell>
                <mxCell id="lora_ext" value="SX127x LoRa-Transceiver (SPI + DIO)" style="rounded=1;whiteSpace=wrap;html=1;fillColor=#d5e8d4;strokeColor=#82b366;fontSize=12" parent="1" vertex="1">
                    <mxGeometry x="20" y="220" width="220" height="60" as="geometry"/>
                </mxCell>
                <mxCell id="gnss_esp" value="GNSS-Modul (UART)" style="rounded=1;whiteSpace=wrap;html=1;fillColor=#fff2cc;strokeColor=#d6b656;fontSize=12" parent="1" vertex="1">
                    <mxGeometry x="20" y="140" width="200" height="50" as="geometry"/>
                </mxCell>
                <mxCell id="sd_esp" value="SD-Karte (SPI)" style="rounded=1;whiteSpace=wrap;html=1;fillColor=#f8cecc;strokeColor=#b85450;fontSize=12" parent="1" vertex="1">
                    <mxGeometry x="600" y="140" width="200" height="50" as="geometry"/>
                </mxCell>
                <mxCell id="power_esp" value="Stromversorgung (Batterie/PMIC)" style="rounded=1;whiteSpace=wrap;html=1;fillColor=#f5f5f5;strokeColor=#666666;fontSize=12" parent="1" vertex="1">
                    <mxGeometry x="310" y="300" width="200" height="50" as="geometry"/>
                </mxCell>
                <mxCell id="sensors_esp" value="Externe Sensoren (I²C / OneWire / GPIO)" style="rounded=1;whiteSpace=wrap;html=1;fillColor=#ffffff;strokeColor=#000000;fontSize=12" parent="1" vertex="1">
                    <mxGeometry x="600" y="230" width="200" height="50" as="geometry"/>
                </mxCell>
                <mxCell id="e1" style="exitX=1;exitY=0.5;exitDx=0;exitDy=0;entryX=0;entryY=0.5;entryDx=0;entryDy=0;" parent="1" source="gnss_esp" target="mcu_esp" edge="1">
                    <mxGeometry relative="1" as="geometry"/>
                </mxCell>
                <mxCell id="e2" style="exitX=0;exitY=0.5;exitDx=0;exitDy=0;entryX=1;entryY=0.5;entryDx=0;entryDy=0;" parent="1" source="sd_esp" target="mcu_esp" edge="1">
                    <mxGeometry relative="1" as="geometry"/>
                </mxCell>
                <mxCell id="e4" parent="1" source="power_esp" target="mcu_esp" edge="1">
                    <mxGeometry relative="1" as="geometry"/>
                </mxCell>
                <mxCell id="e5" style="entryX=1;entryY=0.5;entryDx=0;entryDy=0;exitX=0;exitY=0.5;exitDx=0;exitDy=0;" parent="1" source="sensors_esp" target="mcu_esp" edge="1">
                    <mxGeometry relative="1" as="geometry"/>
                </mxCell>
                <mxCell id="e6" style="exitX=1;exitY=0.5;exitDx=0;exitDy=0;entryX=0;entryY=0.5;entryDx=0;entryDy=0;" parent="1" source="lora_ext" target="mcu_esp" edge="1">
                    <mxGeometry relative="1" as="geometry">
                        <mxPoint x="260" y="250" as="sourcePoint"/>
                        <mxPoint x="270" y="230" as="targetPoint"/>
                    </mxGeometry>
                </mxCell>
            </root>
        </mxGraphModel>
    </diagram>
</mxfile>